# xmcd
#
# Track frame offsets:
#	150
#	34880
#	75412
#	114992
#	133540
#	154777
#	195340
#	282647
#
# Disc length: 4422 seconds
#
# Revision: 1
# Processed by: cddbd v1.5.1PL0 Copyright (c) Steve Scherf et al.
# Submitted via: CDex 1.50Beta5
#
DISCID=62114408
DTITLE=Various Artist - CTI JAZZ
DYEAR=1900
DGENRE=JAZZ
TTITLE0=ヒューバート・ロウズ/パバーヌ
TTITLE1=デオダート/ツァラトゥストラはかく語りき
TTITLE2=デオダート/ラプソディ・イン・ブルー
TTITLE3=デオダート/なき王女のためのパバーヌ
TTITLE4=フューズ・ワン/ウォーターサイド
TTITLE5=ヒューバート・ロウズ/春の祭典
TTITLE6=ジム・ホール/アランフェス協奏曲
TTITLE7=ヒューバート・ロウズ/ビゼー:ファランドール
EXTD=
EXTT0=
EXTT1=
EXTT2=
EXTT3=
EXTT4=
EXTT5=
EXTT6=
EXTT7=
PLAYORDER=
